<?xml version="1.0" encoding="UTF-8"?>
<svg width="140px" height="34px" viewBox="0 0 140 34" version="1.1" xmlns="http://www.w3.org/2000/svg" xmlns:xlink="http://www.w3.org/1999/xlink">
    <!-- Generator: Sketch 51.3 (57544) - http://www.bohemiancoding.com/sketch -->
    <title>Group 27</title>
    <desc>Created with Sketch.</desc>
    <defs></defs>
    <g id="Page-1" stroke="none" stroke-width="1" fill="none" fill-rule="evenodd">
        <g id="@1920_OfficialWebsite_DownloadInsight_20200525" transform="translate(-77.000000, -44.000000)">
            <g id="Group-27" transform="translate(77.000000, 44.000000)">
                <path d="M14.6899384,12.4794661 L19.1170431,12.4794661 L19.1170431,20.4209446 C16.9609856,21.9626968 13.5687885,23.068104 10.75154,23.068104 C4.62833676,23.068104 0,18.5882957 0,12.6540041 C0,6.74880219 4.74332649,2.2980835 11.0965092,2.2980835 C14.0862423,2.2980835 17.24846,3.46167009 19.3182752,5.32340862 L16.4435318,8.84325804 C14.9774127,7.47604381 12.936345,6.63244353 11.0677618,6.63244353 C7.76180698,6.63244353 5.23203285,9.25051335 5.23203285,12.6540041 C5.23203285,16.1156742 7.79055441,18.733744 11.1252567,18.733744 C12.1601643,18.733744 13.4825462,18.3555784 14.6899384,17.7446954 L14.6899384,12.4794661 Z M27.7700205,22.8353867 L22.7967146,22.8353867 L22.7967146,1.25085558 L27.7700205,1.25085558 L27.7700205,22.8353867 Z M34.3819302,0 C35.9055441,0 36.9979466,1.10540726 36.9979466,2.64715948 C36.9979466,4.21800137 35.9055441,5.32340862 34.3819302,5.32340862 C32.8583162,5.32340862 31.7659138,4.21800137 31.7659138,2.64715948 C31.7659138,1.10540726 32.8583162,0 34.3819302,0 Z M36.825462,22.8353867 L31.8809035,22.8353867 L31.8809035,7.15605749 L36.825462,7.15605749 L36.825462,22.8353867 Z M47.7782341,6.92334018 C52.0328542,6.92334018 54.5051335,9.04688569 54.5338809,12.5958248 L54.5338809,22.8353867 L49.6755647,22.8353867 L49.6755647,21.0318275 C48.6694045,22.3699521 47.0308008,23.068104 44.9322382,23.068104 C41.6262834,23.068104 39.613963,21.0318275 39.613963,18.1519507 C39.613963,15.1848049 41.7125257,13.4394251 45.5646817,13.4103354 L49.6468172,13.4103354 L49.6468172,13.1776181 C49.6468172,11.6358658 48.6406571,10.7049966 46.6283368,10.7049966 C45.3347023,10.7049966 43.6386037,11.1704312 42,12.0140315 L40.5913758,8.69780972 C43.0061602,7.5633128 45.1909651,6.92334018 47.7782341,6.92334018 Z M46.4558522,19.6646133 C48.0082136,19.6646133 49.3305955,18.7919233 49.6468172,17.5119781 L49.6468172,16.1156742 L46.513347,16.1156742 C45.0184805,16.1156742 44.2710472,16.6392882 44.2710472,17.8028747 C44.2710472,18.9373717 45.0759754,19.6646133 46.4558522,19.6646133 Z M67.3552361,2.2980835 C70.3449692,2.2980835 73.449692,3.63620808 75.4620123,5.73066393 L72.5010267,9.27960301 C71.1786448,7.65058179 69.2238193,6.63244353 67.4414784,6.63244353 C64.2505133,6.63244353 61.835729,9.19233402 61.835729,12.5376454 C61.835729,15.9411362 64.2505133,18.5301164 67.4414784,18.5301164 C69.137577,18.5301164 71.0924025,17.5992471 72.5010267,16.1447639 L75.4907598,19.344627 C73.3347023,21.5845311 70.1437372,23.068104 67.1827515,23.068104 C61.1170431,23.068104 56.6036961,18.559206 56.6036961,12.5958248 C56.6036961,6.71971253 61.2320329,2.2980835 67.3552361,2.2980835 Z M82.9075975,22.8353867 L77.9342916,22.8353867 L77.9342916,1.25085558 L82.9075975,1.25085558 L82.9075975,22.8353867 Z M94.2053388,6.98151951 C99.2648871,6.98151951 102.657084,10.152293 102.657084,14.9811773 C102.657084,19.8100616 99.2648871,23.0099247 94.2053388,23.0099247 C89.1170431,23.0099247 85.724846,19.8100616 85.724846,14.9811773 C85.724846,10.152293 89.1170431,6.98151951 94.2053388,6.98151951 Z M94.2053388,10.9668036 C92.1355236,10.9668036 90.7268994,12.6249144 90.7268994,15.0393566 C90.7268994,17.4828884 92.1355236,19.1119097 94.2053388,19.1119097 C96.2464066,19.1119097 97.6550308,17.4828884 97.6550308,15.0393566 C97.6550308,12.6249144 96.2464066,10.9668036 94.2053388,10.9668036 Z M120.422998,7.15605749 L120.422998,22.8353867 L115.449692,22.8353867 L115.449692,20.2464066 C114.386037,22.1081451 112.661191,23.0390144 110.418891,23.0390144 C107.055441,23.0390144 104.870637,20.7118412 104.870637,17.0465435 L104.870637,7.15605749 L109.843943,7.15605749 L109.843943,15.6211499 C109.843943,17.4828884 110.850103,18.6173854 112.431211,18.6173854 C114.328542,18.5882957 115.449692,17.0174538 115.449692,14.8939083 L115.449692,7.15605749 L120.422998,7.15605749 Z M140,1.25085558 L140,22.8353867 L135.026694,22.8353867 L135.026694,20.7700205 C133.934292,22.2245038 132.353183,23.0390144 130.36961,23.0390144 C126,23.0390144 123.125257,19.7809719 123.125257,14.9229979 C123.125257,10.1232033 125.971253,6.95242984 130.25462,6.95242984 C132.295688,6.95242984 133.934292,7.76694045 135.026694,9.22142368 L135.026694,1.25085558 L140,1.25085558 Z M131.577002,19.1409993 C133.646817,19.1409993 135.026694,17.4537988 135.026694,15.0393566 C135.026694,12.6249144 133.646817,10.9668036 131.577002,10.9668036 C129.507187,10.9668036 128.12731,12.6249144 128.098563,15.0393566 C128.12731,17.4537988 129.507187,19.1409993 131.577002,19.1409993 Z" id="GliaCloud" fill="#FFFFFF"></path>
                <rect id="Rectangle-8" fill="#15D5BB" x="0" y="29.75" width="42" height="4.25" rx="2.125"></rect>
                <rect id="Rectangle-8" fill="#9A55FF" x="49" y="29.75" width="42" height="4.25" rx="2.125"></rect>
                <rect id="Rectangle-8" fill="#F5A623" x="98" y="29.75" width="42" height="4.25" rx="2.125"></rect>
            </g>
        </g>
    </g>
</svg>